<svg width="32" height="32" viewBox="0 0 32 32" fill="none" xmlns="http://www.w3.org/2000/svg">
<path fill-rule="evenodd" clip-rule="evenodd" d="M16.0287 0.119995C7.20969 0.119995 0.0583496 7.39193 0.0583496 16.363C0.0583496 23.5397 4.63435 29.6284 10.9799 31.7763C11.778 31.9266 12.071 31.4239 12.071 30.9949C12.071 30.6075 12.0562 29.328 12.0494 27.9707C7.60638 28.9533 6.66886 26.0542 6.66886 26.0542C5.94238 24.1767 4.89564 23.6775 4.89564 23.6775C3.44665 22.6693 5.00486 22.69 5.00486 22.69C6.60856 22.8043 7.45299 24.3639 7.45299 24.3639C8.87739 26.8472 11.1891 26.1292 12.1004 25.7142C12.2437 24.6646 12.6576 23.9475 13.1143 23.5422C9.56711 23.1314 5.83818 21.7386 5.83818 15.5147C5.83818 13.7413 6.46205 12.2923 7.48367 11.1547C7.31785 10.7453 6.77121 9.09351 7.63838 6.85612C7.63838 6.85612 8.97947 6.41956 12.0314 8.52112C13.3053 8.16122 14.6715 7.98073 16.0287 7.97455C17.386 7.98073 18.7532 8.16122 20.0295 8.52112C23.0777 6.41956 24.417 6.85612 24.417 6.85612C25.2862 9.09351 24.7393 10.7453 24.5735 11.1547C25.5975 12.2923 26.2172 13.7413 26.2172 15.5147C26.2172 21.7534 22.4811 23.1271 18.9249 23.5293C19.4977 24.0333 20.0081 25.0218 20.0081 26.5373C20.0081 28.7104 19.9896 30.4596 19.9896 30.9949C19.9896 31.4271 20.2771 31.9336 21.0866 31.7741C27.4287 29.6239 31.9988 23.5373 31.9988 16.363C31.9988 7.39193 24.8486 0.119995 16.0287 0.119995Z" fill="white"/>
<path fill-rule="evenodd" clip-rule="evenodd" d="M6.10714 23.4416C6.07197 23.5225 5.94714 23.5465 5.83342 23.4911C5.71759 23.4381 5.65253 23.3281 5.69008 23.2471C5.72446 23.164 5.84956 23.1411 5.96513 23.1963C6.08122 23.2495 6.14734 23.3606 6.10714 23.4416Z" fill="white"/>
<path fill-rule="evenodd" clip-rule="evenodd" d="M6.75402 24.1754C6.67785 24.2472 6.52896 24.2138 6.42794 24.1003C6.32347 23.9871 6.3039 23.8356 6.38113 23.7627C6.45967 23.6909 6.60407 23.7245 6.7088 23.8378C6.81326 23.9524 6.83362 24.1027 6.75402 24.1754Z" fill="white"/>
<path fill-rule="evenodd" clip-rule="evenodd" d="M7.3837 25.1109C7.28585 25.18 7.12585 25.1152 7.02694 24.9707C6.92909 24.8263 6.92909 24.6531 7.02906 24.5837C7.12823 24.5143 7.28585 24.5767 7.38609 24.72C7.48367 24.8666 7.48367 25.0401 7.3837 25.1109Z" fill="white"/>
<path fill-rule="evenodd" clip-rule="evenodd" d="M8.24638 26.0147C8.15884 26.1128 7.9724 26.0865 7.83594 25.9525C7.6963 25.8215 7.65742 25.6357 7.74523 25.5375C7.83382 25.439 8.02132 25.4667 8.15884 25.5996C8.29742 25.7303 8.33974 25.9175 8.24638 26.0147Z" fill="white"/>
<path fill-rule="evenodd" clip-rule="evenodd" d="M9.43647 26.5394C9.39785 26.6667 9.21828 26.7245 9.03739 26.6704C8.85676 26.6147 8.73855 26.4657 8.77504 26.3372C8.8126 26.2091 8.99296 26.1489 9.17518 26.2067C9.35554 26.2621 9.47402 26.4101 9.43647 26.5394Z" fill="white"/>
<path fill-rule="evenodd" clip-rule="evenodd" d="M10.7434 26.6368C10.7479 26.7708 10.5945 26.8819 10.4047 26.884C10.2137 26.8886 10.0593 26.7802 10.0572 26.6484C10.0572 26.5131 10.2071 26.4031 10.3981 26.3998C10.5879 26.3961 10.7434 26.5037 10.7434 26.6368Z" fill="white"/>
<path fill-rule="evenodd" clip-rule="evenodd" d="M11.9597 26.4262C11.9824 26.5569 11.8505 26.6911 11.6619 26.7266C11.4765 26.7613 11.3049 26.6807 11.2814 26.551C11.2583 26.417 11.3927 26.2828 11.5778 26.2481C11.7666 26.2148 11.9356 26.2933 11.9597 26.4262Z" fill="white"/>
</svg>
